P2
# Generated By SeamCarver
20 27
255
192 140 72 205 205 205 255 247 247 255 255 255 70 230 46 46 237 197 6 151 
192 140 72 151 230 94 214 230 94 205 255 247 127 151 36 46 247 70 6 255 
192 140 72 134 255 177 158 62 6 46 134 6 175 255 221 191 23 163 191 205 
192 140 72 255 255 255 85 79 102 111 15 6 6 6 6 6 6 6 6 6 
192 140 72 255 255 255 205 6 102 158 151 6 6 6 6 6 6 6 6 6 
192 140 72 255 255 118 255 118 70 127 102 46 6 6 6 6 6 6 6 6 
192 140 72 255 255 177 205 255 141 53 85 23 191 85 6 6 6 6 6 205 
192 140 72 255 255 255 118 247 255 230 102 6 85 255 230 163 134 163 230 255 
192 140 72 255 255 255 247 85 247 255 255 118 6 102 247 255 255 255 255 163 
192 140 72 255 255 255 255 151 62 255 255 255 70 6 46 175 255 255 205 6 
192 140 72 255 255 255 151 127 230 255 255 255 214 23 6 6 46 118 70 6 
192 140 72 255 247 102 205 255 255 255 255 255 255 191 15 102 6 6 6 102 
192 140 72 255 102 247 255 255 255 255 255 255 255 255 177 118 191 134 205 205 
192 140 72 255 175 255 255 255 255 255 255 255 255 255 255 230 221 134 255 255 
192 140 72 255 191 255 255 230 230 255 255 255 255 255 255 255 205 151 255 255 
192 140 72 255 118 151 118 163 230 255 255 255 255 255 255 255 205 6 46 118 
192 140 72 255 118 230 255 255 255 255 255 255 255 255 255 255 247 85 118 6 
192 140 72 255 151 255 255 255 247 177 255 255 255 255 255 255 255 163 214 255 
192 140 72 255 102 177 134 134 151 221 255 255 255 255 255 255 255 255 163 255 
192 140 72 255 230 134 247 255 255 255 255 255 255 255 255 255 255 221 85 255 
192 140 72 255 205 177 255 255 255 255 255 255 255 255 255 255 247 118 247 255 
192 140 221 221 102 70 151 163 134 134 247 255 255 255 255 230 70 151 255 255 
192 109 6 6 15 154 112 230 255 255 255 255 255 230 151 81 107 85 153 165 
81 85 85 72 72 72 85 163 255 255 205 151 91 81 83 72 83 50 6 40 
192 192 192 192 192 192 192 134 102 94 134 175 192 192 192 192 192 192 158 70 
192 192 192 192 192 192 192 192 192 192 192 192 192 192 192 192 192 192 192 192 
192 192 192 192 192 192 192 192 192 192 192 192 192 192 192 192 192 192 192 192 
