P2
# Generated By SeamCarver
20 27
255
255 70 70 205 191 197 6 151 255 247 197 255 255 151 255 120 97 192 192 192 
255 127 230 46 6 118 6 46 247 134 158 255 255 255 255 120 97 192 192 192 
6 175 255 221 191 102 6 6 23 163 23 230 255 255 255 120 97 192 192 192 
15 6 6 6 6 6 6 6 6 6 6 163 255 255 255 120 110 192 192 192 
6 6 6 6 6 6 6 6 6 6 6 6 255 255 255 120 97 192 192 192 
118 70 6 6 6 6 6 6 6 6 6 134 175 255 255 120 97 192 192 192 
255 141 191 85 6 6 6 6 6 85 205 85 205 255 255 120 97 192 192 192 
118 102 85 255 230 134 85 134 230 255 163 23 247 255 255 120 110 192 192 192 
255 118 6 102 247 255 255 255 255 163 6 163 255 255 255 120 97 192 192 192 
255 255 70 6 46 175 255 205 85 6 102 255 255 255 255 120 110 192 192 192 
230 255 214 23 6 6 70 6 6 6 46 255 255 255 255 120 97 192 192 192 
192 255 255 191 15 102 6 102 191 23 6 205 255 255 255 120 110 192 192 192 
192 247 255 255 177 118 255 255 255 191 6 118 255 255 255 120 97 192 192 192 
192 255 255 255 255 230 134 255 205 85 6 102 255 255 255 120 110 192 192 192 
192 255 230 255 255 205 151 255 6 23 175 255 255 255 255 120 110 192 192 192 
192 118 163 230 255 205 6 46 118 247 255 255 255 255 255 120 97 192 192 192 
230 255 255 255 255 247 85 118 6 85 255 255 255 255 255 120 110 192 192 192 
255 255 255 247 177 255 163 214 255 255 255 255 255 255 255 120 97 192 192 192 
177 134 134 151 221 151 163 163 255 255 255 255 255 255 255 120 110 192 192 192 
134 247 255 255 85 247 214 247 255 255 255 255 255 255 255 120 110 192 192 192 
177 255 255 118 247 255 255 255 255 255 255 255 255 255 255 120 97 192 192 192 
192 151 70 151 255 255 255 255 255 255 255 255 255 255 255 120 110 192 192 192 
154 230 255 85 153 165 164 164 164 164 164 164 164 164 164 97 110 192 192 192 
85 163 83 50 6 40 72 72 72 72 72 72 72 72 72 72 97 192 192 192 
192 134 192 192 158 70 151 192 192 192 192 192 192 192 192 192 192 192 192 192 
192 192 192 192 192 192 192 192 192 192 192 192 192 192 192 192 192 192 192 192 
192 192 192 192 192 192 192 192 192 192 192 192 192 192 192 192 192 192 192 192 
